<svg width="1024" height="1024" viewBox="0 0 1024 1024" fill="none" xmlns="http://www.w3.org/2000/svg">
<path fill-rule="evenodd" clip-rule="evenodd" d="M634.387 428.608C636.059 430.984 637.496 433.544 638.669 436.262C707.832 454.921 758.749 516.67 758.749 589.769C758.749 677.6 685.249 749.055 594.906 749.055C547.739 749.055 505.172 729.572 475.25 698.458H361.668C337.223 698.458 317.334 679.123 317.334 655.357C317.334 641.708 323.901 629.528 334.118 621.625C323.901 613.723 317.334 601.544 317.334 587.894C317.334 574.245 323.901 562.066 334.118 554.164C323.901 546.261 317.334 534.081 317.334 520.432C317.334 506.783 323.901 494.604 334.118 486.7C323.901 478.798 317.334 466.619 317.334 452.97C317.334 429.205 337.223 409.869 361.668 409.869H386.804C381.896 402.933 379.016 394.543 379.016 385.508C379.016 376.472 381.897 368.082 386.804 361.146H309.624C285.178 361.146 265.29 341.811 265.29 318.045C265.29 294.28 285.178 274.944 309.624 274.944H545.752C570.196 274.944 590.085 294.28 590.085 318.045C590.085 327.081 587.204 335.471 582.297 342.407H659.478C683.923 342.407 703.812 361.742 703.812 385.508C703.812 409.273 683.923 428.608 659.478 428.608H634.387ZM684.536 385.508C684.536 372.075 673.296 361.146 659.478 361.146H423.35C409.532 361.146 398.292 372.075 398.292 385.508C398.292 398.94 409.532 409.869 423.35 409.869H597.795H659.478C673.296 409.869 684.536 398.94 684.536 385.508ZM284.565 318.045C284.565 331.478 295.806 342.407 309.624 342.407H545.752C559.569 342.407 570.81 331.478 570.81 318.045C570.81 304.613 559.569 293.684 545.752 293.684H309.624C295.806 293.684 284.565 304.613 284.565 318.045ZM597.795 428.608H361.668C347.851 428.608 336.61 439.538 336.61 452.97C336.61 466.403 347.851 477.331 361.668 477.331H478.963C508.641 448.406 549.66 430.483 594.906 430.483C599.562 430.483 604.17 430.684 608.73 431.057C605.395 429.485 601.677 428.608 597.795 428.608ZM462.495 496.071H361.668C347.85 496.071 336.61 506.999 336.61 520.432C336.61 533.866 347.85 544.793 361.668 544.793H437.723C443.094 527.079 451.554 510.643 462.495 496.071ZM433.297 563.533H361.668C347.85 563.533 336.61 574.461 336.61 587.894C336.61 601.328 347.85 612.256 361.668 612.256H432.703C431.629 604.907 431.061 597.403 431.061 589.769C431.061 580.834 431.835 572.071 433.297 563.533ZM336.61 655.357C336.61 668.79 347.85 679.718 361.668 679.718H459.762C449.401 665.051 441.5 648.623 436.638 630.995H361.668C347.85 630.995 336.61 641.923 336.61 655.357ZM450.337 589.769C450.337 667.267 515.191 730.315 594.906 730.315C674.619 730.315 739.473 667.267 739.473 589.769C739.473 512.272 674.619 449.223 594.906 449.223C515.191 449.223 450.337 512.272 450.337 589.769ZM570.32 557.74C570.32 569.126 581.328 578.388 594.858 578.388C620.689 578.388 641.705 597.379 641.705 620.723C641.705 640.594 626.475 657.301 606.012 661.836V666.52C606.012 672.507 601.018 677.364 594.858 677.364C588.7 677.364 583.706 672.507 583.706 666.52V661.836C563.242 657.301 548.013 640.594 548.013 620.723C548.013 614.736 553.008 609.88 559.167 609.88C565.327 609.88 570.32 614.736 570.32 620.723C570.32 632.109 581.328 641.371 594.858 641.371C608.39 641.371 619.396 632.109 619.396 620.723C619.396 609.338 608.39 600.074 594.858 600.074C569.028 600.074 548.013 581.083 548.013 557.74C548.013 537.871 563.242 521.163 583.706 516.628V510.989C583.706 505.001 588.7 500.146 594.858 500.146C601.018 500.146 606.012 505.001 606.012 510.989V516.628C626.475 521.163 641.705 537.871 641.705 557.74C641.705 563.728 636.71 568.585 630.55 568.585C624.391 568.585 619.396 563.728 619.396 557.74C619.396 546.355 608.39 537.093 594.858 537.093C581.328 537.093 570.32 546.355 570.32 557.74Z" fill="#FF872C"/>
<path d="M638.669 436.262L635.467 437.644L636.135 439.189L637.761 439.627L638.669 436.262ZM634.387 428.608V425.122H627.669L631.536 430.616L634.387 428.608ZM475.25 698.458L477.763 696.042L476.735 694.972H475.25V698.458ZM334.118 621.626L336.251 624.384L339.816 621.626L336.251 618.869L334.118 621.626ZM334.118 554.164L336.251 556.921L339.816 554.164L336.251 551.406L334.118 554.164ZM334.118 486.701L336.251 489.459L339.816 486.701L336.251 483.944L334.118 486.701ZM386.804 409.869V413.356H393.541L389.649 407.856L386.804 409.869ZM386.804 361.146L389.649 363.16L393.54 357.66H386.804V361.146ZM582.297 342.407L579.452 340.393L575.561 345.893H582.297V342.407ZM478.963 477.331V480.817H480.38L481.395 479.827L478.963 477.331ZM608.73 431.057L608.446 434.53L610.215 427.902L608.73 431.057ZM462.495 496.071L465.282 498.164L469.471 492.585H462.495V496.071ZM437.722 544.793V548.279H440.308L441.058 545.805L437.722 544.793ZM433.297 563.533L436.732 564.121L437.43 560.047H433.297V563.533ZM432.702 612.256V615.742H436.734L436.151 611.753L432.702 612.256ZM459.762 679.718V683.204H466.491L462.609 677.707L459.762 679.718ZM436.638 630.995L439.998 630.069L439.291 627.509H436.638V630.995ZM606.012 661.836L605.258 658.432L602.526 659.037V661.836H606.012ZM583.705 661.836H587.192V659.037L584.46 658.432L583.705 661.836ZM583.705 516.628L584.46 520.032L587.192 519.427V516.628H583.705ZM606.012 516.628H602.526V519.427L605.258 520.032L606.012 516.628ZM641.869 434.88C640.602 431.943 639.047 429.173 637.237 426.601L631.536 430.616C633.07 432.794 634.389 435.147 635.467 437.644L641.869 434.88ZM762.235 589.77C762.235 514.991 710.159 451.938 639.577 432.896L637.761 439.627C705.503 457.904 755.263 518.347 755.263 589.77H762.235ZM594.906 752.542C687.08 752.542 762.235 679.618 762.235 589.77H755.263C755.263 675.582 683.417 745.569 594.906 745.569V752.542ZM472.737 700.875C503.298 732.653 546.764 752.542 594.906 752.542V745.569C548.713 745.569 507.046 726.492 477.763 696.042L472.737 700.875ZM361.668 701.944H475.25V694.972H361.668V701.944ZM313.848 655.357C313.848 681.139 335.391 701.944 361.668 701.944V694.972C339.055 694.972 320.82 677.105 320.82 655.357H313.848ZM331.985 618.869C320.974 627.385 313.848 640.557 313.848 655.357H320.82C320.82 642.86 326.828 631.671 336.251 624.384L331.985 618.869ZM313.848 587.894C313.848 602.696 320.974 615.867 331.985 624.384L336.251 618.869C326.828 611.58 320.82 600.391 320.82 587.894H313.848ZM331.985 551.406C320.974 559.923 313.848 573.093 313.848 587.894H320.82C320.82 575.398 326.828 564.209 336.251 556.921L331.985 551.406ZM313.848 520.432C313.848 535.233 320.974 548.405 331.985 556.921L336.251 551.406C326.828 544.118 320.82 532.929 320.82 520.432H313.848ZM331.985 483.944C320.974 492.46 313.848 505.632 313.848 520.432H320.82C320.82 507.935 326.828 496.747 336.251 489.459L331.985 483.944ZM313.848 452.97C313.848 467.771 320.974 480.941 331.985 489.459L336.251 483.944C326.828 476.655 320.82 465.467 320.82 452.97H313.848ZM361.668 406.383C335.391 406.383 313.848 427.187 313.848 452.97H320.82C320.82 431.221 339.055 413.356 361.668 413.356V406.383ZM386.804 406.383H361.668V413.356H386.804V406.383ZM375.53 385.508C375.53 395.298 378.653 404.386 383.958 411.883L389.649 407.856C385.139 401.48 382.502 393.788 382.502 385.508H375.53ZM383.958 359.133C378.655 366.629 375.53 375.717 375.53 385.508H382.502C382.502 377.227 385.139 369.535 389.649 363.16L383.958 359.133ZM309.624 364.632H386.804V357.66H309.624V364.632ZM261.803 318.045C261.803 343.828 283.346 364.632 309.624 364.632V357.66C287.01 357.66 268.776 339.793 268.776 318.045H261.803ZM309.624 271.458C283.346 271.458 261.803 292.262 261.803 318.045H268.776C268.776 296.297 287.01 278.43 309.624 278.43V271.458ZM545.751 271.458H309.624V278.43H545.751V271.458ZM593.571 318.045C593.571 292.262 572.028 271.458 545.751 271.458V278.43C568.364 278.43 586.599 296.297 586.599 318.045H593.571ZM585.143 344.42C590.446 336.924 593.571 327.836 593.571 318.045H586.599C586.599 326.325 583.962 334.018 579.452 340.393L585.143 344.42ZM659.478 338.921H582.297V345.893H659.478V338.921ZM707.298 385.508C707.298 359.725 685.755 338.921 659.478 338.921V345.893C682.09 345.893 700.326 363.759 700.326 385.508H707.298ZM659.478 432.094C685.755 432.094 707.298 411.29 707.298 385.508H700.326C700.326 407.256 682.09 425.122 659.478 425.122V432.094ZM634.387 432.094H659.478V425.122H634.387V432.094ZM659.478 364.632C671.463 364.632 681.05 374.092 681.05 385.508H688.022C688.022 370.058 675.128 357.66 659.478 357.66V364.632ZM423.35 364.632H659.478V357.66H423.35V364.632ZM401.778 385.508C401.778 374.092 411.365 364.632 423.35 364.632V357.66C407.7 357.66 394.806 370.058 394.806 385.508H401.778ZM423.35 406.383C411.365 406.383 401.778 396.923 401.778 385.508H394.806C394.806 400.958 407.7 413.356 423.35 413.356V406.383ZM597.795 406.383H423.35V413.356H597.795V406.383ZM659.478 406.383H597.795V413.356H659.478V406.383ZM681.05 385.508C681.05 396.923 671.463 406.383 659.478 406.383V413.356C675.128 413.356 688.022 400.958 688.022 385.508H681.05ZM309.624 338.921C297.638 338.921 288.051 329.46 288.051 318.045H281.079C281.079 333.495 293.974 345.893 309.624 345.893V338.921ZM545.751 338.921H309.624V345.893H545.751V338.921ZM567.324 318.045C567.324 329.46 557.737 338.921 545.751 338.921V345.893C561.401 345.893 574.296 333.495 574.296 318.045H567.324ZM545.751 297.17C557.737 297.17 567.324 306.63 567.324 318.045H574.296C574.296 302.596 561.401 290.198 545.751 290.198V297.17ZM309.624 297.17H545.751V290.198H309.624V297.17ZM288.051 318.045C288.051 306.63 297.638 297.17 309.624 297.17V290.198C293.974 290.198 281.079 302.596 281.079 318.045H288.051ZM361.668 432.094H597.795V425.122H361.668V432.094ZM340.096 452.97C340.096 441.555 349.683 432.094 361.668 432.094V425.122C346.019 425.122 333.124 437.52 333.124 452.97H340.096ZM361.668 473.845C349.683 473.845 340.096 464.385 340.096 452.97H333.124C333.124 468.419 346.019 480.817 361.668 480.817V473.845ZM478.963 473.845H361.668V480.817H478.963V473.845ZM594.906 426.997C548.726 426.997 506.841 445.294 476.53 474.835L481.395 479.827C510.441 451.52 550.594 433.97 594.906 433.97V426.997ZM609.013 427.582C604.366 427.202 599.662 426.997 594.906 426.997V433.97C599.461 433.97 603.977 434.166 608.446 434.53L609.013 427.582ZM597.795 432.094C601.15 432.094 604.361 432.853 607.244 434.209L610.215 427.902C606.429 426.119 602.206 425.122 597.795 425.122V432.094ZM361.668 499.557H462.495V492.585H361.668V499.557ZM340.096 520.432C340.096 509.017 349.682 499.557 361.668 499.557V492.585C346.018 492.585 333.124 504.983 333.124 520.432H340.096ZM361.668 541.307C349.682 541.307 340.096 531.848 340.096 520.432H333.124C333.124 535.883 346.018 548.279 361.668 548.279V541.307ZM437.722 541.307H361.668V548.279H437.722V541.307ZM459.706 493.978C448.528 508.867 439.88 525.668 434.386 543.782L441.058 545.805C446.309 528.492 454.579 512.42 465.282 498.164L459.706 493.978ZM361.668 567.019H433.297V560.047H361.668V567.019ZM340.096 587.894C340.096 576.479 349.682 567.019 361.668 567.019V560.047C346.018 560.047 333.124 572.444 333.124 587.894H340.096ZM361.668 608.77C349.682 608.77 340.096 599.31 340.096 587.894H333.124C333.124 603.346 346.018 615.742 361.668 615.742V608.77ZM432.702 608.77H361.668V615.742H432.702V608.77ZM427.575 589.77C427.575 597.576 428.157 605.249 429.253 612.76L436.151 611.753C435.102 604.566 434.547 597.228 434.547 589.77H427.575ZM429.861 562.945C428.366 571.674 427.575 580.632 427.575 589.77H434.547C434.547 581.035 435.303 572.47 436.732 564.121L429.861 562.945ZM361.668 676.232C349.682 676.232 340.096 666.774 340.096 655.357H333.124C333.124 670.808 346.018 683.204 361.668 683.204V676.232ZM459.762 676.232H361.668V683.204H459.762V676.232ZM433.277 631.922C438.25 649.948 446.328 666.743 456.914 681.729L462.609 677.707C452.474 663.36 444.75 647.297 439.998 630.069L433.277 631.922ZM361.668 634.481H436.638V627.509H361.668V634.481ZM340.096 655.357C340.096 643.941 349.682 634.481 361.668 634.481V627.509C346.018 627.509 333.124 639.907 333.124 655.357H340.096ZM594.906 726.829C517.022 726.829 453.823 665.249 453.823 589.77H446.851C446.851 669.285 513.359 733.802 594.906 733.802V726.829ZM735.987 589.77C735.987 665.249 672.788 726.829 594.906 726.829V733.802C676.451 733.802 742.959 669.285 742.959 589.77H735.987ZM594.906 452.71C672.788 452.71 735.987 514.29 735.987 589.77H742.959C742.959 510.254 676.451 445.737 594.906 445.737V452.71ZM453.823 589.77C453.823 514.29 517.022 452.71 594.906 452.71V445.737C513.359 445.737 446.851 510.254 446.851 589.77H453.823ZM594.858 574.902C582.665 574.902 573.806 566.661 573.806 557.741H566.834C566.834 571.59 579.991 581.874 594.858 581.874V574.902ZM645.191 620.723C645.191 595.13 622.274 574.902 594.858 574.902V581.874C619.105 581.874 638.218 599.628 638.218 620.723H645.191ZM606.767 665.24C628.552 660.412 645.191 642.492 645.191 620.723H638.218C638.218 638.695 624.398 654.191 605.258 658.432L606.767 665.24ZM609.499 666.52V661.836H602.526V666.52H609.499ZM594.858 680.85C602.85 680.85 609.499 674.525 609.499 666.52H602.526C602.526 670.491 599.185 673.878 594.858 673.878V680.85ZM580.219 666.52C580.219 674.525 586.868 680.85 594.858 680.85V673.878C590.531 673.878 587.192 670.491 587.192 666.52H580.219ZM580.219 661.836V666.52H587.192V661.836H580.219ZM544.527 620.723C544.527 642.492 561.166 660.412 582.951 665.24L584.46 658.432C565.32 654.191 551.499 638.695 551.499 620.723H544.527ZM559.167 606.394C551.176 606.394 544.527 612.718 544.527 620.723H551.499C551.499 616.752 554.84 613.366 559.167 613.366V606.394ZM573.806 620.723C573.806 612.718 567.158 606.394 559.167 606.394V613.366C563.494 613.366 566.834 616.752 566.834 620.723H573.806ZM594.858 637.885C582.665 637.885 573.806 629.644 573.806 620.723H566.834C566.834 634.573 579.991 644.857 594.858 644.857V637.885ZM615.91 620.723C615.91 629.644 607.053 637.885 594.858 637.885V644.857C609.727 644.857 622.882 634.573 622.882 620.723H615.91ZM594.858 603.561C607.053 603.561 615.91 611.802 615.91 620.723H622.882C622.882 606.872 609.727 596.588 594.858 596.588V603.561ZM544.527 557.741C544.527 583.333 567.443 603.561 594.858 603.561V596.588C570.613 596.588 551.499 578.834 551.499 557.741H544.527ZM582.951 513.224C561.166 518.053 544.527 535.972 544.527 557.741H551.499C551.499 539.77 565.32 524.274 584.46 520.032L582.951 513.224ZM580.219 510.989V516.628H587.192V510.989H580.219ZM594.858 496.66C586.868 496.66 580.219 502.983 580.219 510.989H587.192C587.192 507.018 590.531 503.632 594.858 503.632V496.66ZM609.499 510.989C609.499 502.983 602.85 496.66 594.858 496.66V503.632C599.185 503.632 602.526 507.018 602.526 510.989H609.499ZM609.499 516.628V510.989H602.526V516.628H609.499ZM645.191 557.741C645.191 535.972 628.552 518.053 606.767 513.224L605.258 520.032C624.398 524.274 638.218 539.77 638.218 557.741H645.191ZM630.55 572.071C638.542 572.071 645.191 565.746 645.191 557.741H638.218C638.218 561.712 634.877 565.099 630.55 565.099V572.071ZM615.91 557.741C615.91 565.746 622.559 572.071 630.55 572.071V565.099C626.223 565.099 622.882 561.712 622.882 557.741H615.91ZM594.858 540.579C607.053 540.579 615.91 548.82 615.91 557.741H622.882C622.882 543.891 609.727 533.607 594.858 533.607V540.579ZM573.806 557.741C573.806 548.82 582.665 540.579 594.858 540.579V533.607C579.991 533.607 566.834 543.891 566.834 557.741H573.806Z" fill="#FF872C"/>
</svg>
